<svg width="60" height="60" viewBox="0 0 60 60" fill="none" xmlns="http://www.w3.org/2000/svg">
<g clip-path="url(#clip0_254_39)">
<path d="M52.5 0H7.5C3.35814 0 0 3.35814 0 7.5V52.5C0 56.6419 3.35814 60 7.5 60H52.5C56.6419 60 60 56.6419 60 52.5V7.5C60 3.35814 56.6419 0 52.5 0ZM41.25 31.875H31.875V41.25C31.875 42.285 31.035 43.125 30 43.125C28.965 43.125 28.125 42.285 28.125 41.25V31.875H18.75C17.715 31.875 16.875 31.035 16.875 30C16.875 28.965 17.715 28.125 18.75 28.125H28.125V18.75C28.125 17.715 28.965 16.875 30 16.875C31.035 16.875 31.875 17.715 31.875 18.75V28.125H41.25C42.285 28.125 43.125 28.965 43.125 30C43.125 31.035 42.285 31.875 41.25 31.875Z" fill="black"/>
</g>
<defs>
<clipPath id="clip0_254_39">
<rect width="60" height="60" fill="white"/>
</clipPath>
</defs>
</svg>
