<?xml version="1.0" encoding="UTF-8"?>
<!DOCTYPE svg PUBLIC "-//W3C//DTD SVG 1.1//EN" "http://www.w3.org/Graphics/SVG/1.1/DTD/svg11.dtd">
<!-- Creator: CorelDRAW X6 -->
<svg xmlns="http://www.w3.org/2000/svg" xml:space="preserve" width="100%" height="100%" version="1.1" style="shape-rendering:geometricPrecision; text-rendering:geometricPrecision; image-rendering:optimizeQuality; fill-rule:evenodd; clip-rule:evenodd"
viewBox="0 0 500 500"
 xmlns:xlink="http://www.w3.org/1999/xlink">
 <defs>
  <style type="text/css">
   <![CDATA[
    .fil0 {fill:#202020}
   ]]>
  </style>
 </defs>
 <g id="Layer_x0020_1">
  <metadata id="CorelCorpID_0Corel-Layer"/>
  <path class="fil0" d="M360 130l-220 0c-1,0 -5,-2 -5,-5 -1,-3 1,-6 2,-8l10 -19 -19 0c-5,0 -9,4 -9,9l0 330c0,5 4,9 9,9l184 0 69 -67 0 -272c0,-5 -4,-9 -9,-9l-19 0 10 19c1,2 3,5 2,8 0,3 -4,5 -5,5zm-259 -67l61 0 6 -11c1,-1 1,-2 3,-2l48 0c2,0 7,-3 7,-8l0 -12c0,-5 4,-10 10,-10l28 0c6,0 10,5 10,10l0 12c0,5 5,8 7,8l46 0c2,0 4,1 5,2l6 11 61 0c8,0 15,7 15,16l0 386c0,8 -7,15 -15,15l-298 0c-8,0 -15,-7 -15,-15l0 -386c0,-9 7,-16 15,-16zm102 282l131 0 0 12 -131 0 0 -12zm0 -87l117 0 0 12 -117 0 0 -12zm0 -87l153 0 0 12 -153 0 0 -12zm0 204l100 0 0 12 -100 0 0 -12zm0 -87l152 0 0 13 -152 0 0 -13zm0 -86l128 0 0 12 -128 0 0 -12zm-60 142l44 0 0 43 -44 0 0 -43zm0 -86l44 0 0 43 -44 0 0 -43zm0 -87l44 0 0 43 -44 0 0 -43z"/>
 </g>
</svg>
