<svg width="124" height="16" viewBox="0 0 124 16" fill="none" xmlns="http://www.w3.org/2000/svg">
<path d="M8.03 1.854H9.416C9.66533 1.854 9.79 1.97133 9.79 2.206V12.59C9.79 13.6607 9.48933 14.4967 8.888 15.098C8.28667 15.6993 7.45067 16 6.38 16H4.18C3.09467 16 2.25133 15.6993 1.65 15.098C1.04867 14.4967 0.748 13.6607 0.748 12.59V10.61C0.748 10.3607 0.88 10.236 1.144 10.236H2.53C2.77933 10.236 2.904 10.3607 2.904 10.61V12.502C2.904 13.5873 3.432 14.13 4.488 14.13H6.05C7.106 14.13 7.634 13.5873 7.634 12.502V2.228C7.634 1.97867 7.766 1.854 8.03 1.854ZM17.7913 16H15.8553C14.77 16 13.9266 15.6993 13.3253 15.098C12.7386 14.4967 12.4453 13.6607 12.4453 12.59V8.19C12.4453 7.10467 12.7386 6.26867 13.3253 5.682C13.9266 5.08067 14.77 4.78 15.8553 4.78H17.7913C18.862 4.78 19.698 5.08067 20.2993 5.682C20.9153 6.26867 21.2233 7.10467 21.2233 8.19V12.59C21.2233 13.6607 20.9153 14.4967 20.2993 15.098C19.698 15.6993 18.862 16 17.7913 16ZM16.1633 14.13H17.5053C18.5613 14.13 19.0893 13.5947 19.0893 12.524V8.256C19.0893 7.18533 18.5613 6.65 17.5053 6.65H16.1633C15.606 6.65 15.2026 6.782 14.9533 7.046C14.704 7.29533 14.5793 7.69867 14.5793 8.256V12.524C14.5793 13.0813 14.704 13.492 14.9533 13.756C15.2026 14.0053 15.606 14.13 16.1633 14.13ZM23.0472 4.78H24.5212C24.7559 4.78 24.8952 4.90467 24.9392 5.154L27.2272 13.998H27.3812L29.6252 5.154C29.6839 4.90467 29.8379 4.78 30.0872 4.78H31.5392C31.8032 4.78 31.8912 4.90467 31.8032 5.154L28.8332 15.604C28.7746 15.868 28.6132 16 28.3492 16H26.2372C25.9732 16 25.8119 15.868 25.7532 15.604L22.7832 5.154C22.7246 4.90467 22.8126 4.78 23.0472 4.78ZM41.5546 16H36.8026C35.7172 16 34.8739 15.6993 34.2726 15.098C33.6859 14.4967 33.3926 13.6607 33.3926 12.59V8.19C33.3926 7.10467 33.6859 6.26867 34.2726 5.682C34.8739 5.08067 35.7172 4.78 36.8026 4.78H38.6066C39.6919 4.78 40.5352 5.08067 41.1366 5.682C41.7379 6.26867 42.0386 7.10467 42.0386 8.19V10.984C42.0386 11.248 41.9066 11.38 41.6426 11.38H35.7466C35.5852 11.38 35.5046 11.4533 35.5046 11.6V12.546C35.5046 13.6167 36.0399 14.152 37.1106 14.152H41.5546C41.8186 14.152 41.9506 14.284 41.9506 14.548V15.648C41.9506 15.8827 41.8186 16 41.5546 16ZM35.7466 9.884H39.6846C39.8312 9.884 39.9046 9.81067 39.9046 9.664V8.256C39.9046 7.69867 39.7799 7.29533 39.5306 7.046C39.2812 6.782 38.8779 6.65 38.3206 6.65H37.1106C36.5532 6.65 36.1499 6.782 35.9006 7.046C35.6512 7.29533 35.5266 7.69867 35.5266 8.256V9.664C35.5266 9.81067 35.5999 9.884 35.7466 9.884ZM46.2222 16H44.8362C44.5868 16 44.4622 15.8753 44.4622 15.626V5.154C44.4622 4.90467 44.5868 4.78 44.8362 4.78H46.2222C46.4715 4.78 46.5962 4.90467 46.5962 5.154V5.946H46.6842C47.1095 5.16867 47.8868 4.78 49.0162 4.78H49.7422C51.0182 4.78 51.9275 5.264 52.4702 6.232C52.7048 5.76267 53.0642 5.40333 53.5482 5.154C54.0322 4.90467 54.5528 4.78 55.1102 4.78H55.8142C56.8848 4.78 57.6988 5.08067 58.2562 5.682C58.8282 6.26867 59.1142 7.10467 59.1142 8.19V15.626C59.1142 15.8753 58.9895 16 58.7402 16H57.3322C57.0828 16 56.9582 15.8753 56.9582 15.626V8.278C56.9582 7.19267 56.4302 6.65 55.3742 6.65H54.7362C53.5188 6.65 52.9102 7.288 52.9102 8.564V15.626C52.9102 15.8753 52.7782 16 52.5142 16H51.1282C50.8788 16 50.7542 15.8753 50.7542 15.626V8.278C50.7542 7.19267 50.2262 6.65 49.1702 6.65H48.4002C47.1975 6.65 46.5962 7.27333 46.5962 8.52V15.626C46.5962 15.8753 46.4715 16 46.2222 16Z" fill="white"/>
<path d="M71.1128 16H69.7268C69.4628 16 69.3308 15.8753 69.3308 15.626V3.944C69.3308 3.79733 69.2574 3.724 69.1108 3.724H66.3388C66.0748 3.724 65.9428 3.59933 65.9428 3.35V2.228C65.9428 1.97867 66.0748 1.854 66.3388 1.854H74.5008C74.7648 1.854 74.8968 1.97867 74.8968 2.228V3.35C74.8968 3.59933 74.7648 3.724 74.5008 3.724H71.7288C71.5674 3.724 71.4868 3.79733 71.4868 3.944V15.626C71.4868 15.8753 71.3621 16 71.1128 16ZM80.6078 16H79.7498C78.6645 16 77.8212 15.6993 77.2198 15.098C76.6332 14.4967 76.3398 13.6607 76.3398 12.59V8.19C76.3398 7.10467 76.6332 6.26867 77.2198 5.682C77.8212 5.08067 78.6645 4.78 79.7498 4.78H84.6778C84.9418 4.78 85.0738 4.90467 85.0738 5.154V15.626C85.0738 15.8753 84.9418 16 84.6778 16H83.2918C83.0425 16 82.9178 15.8753 82.9178 15.626V14.834H82.8298C82.4778 15.6113 81.7372 16 80.6078 16ZM82.9178 12.26V6.87C82.9178 6.72333 82.8372 6.65 82.6758 6.65H80.0578C79.0018 6.65 78.4738 7.19267 78.4738 8.278V12.502C78.4738 13.5873 79.0018 14.13 80.0578 14.13H81.1138C82.3165 14.13 82.9178 13.5067 82.9178 12.26ZM91.8216 16H87.7736C87.5243 16 87.3996 15.8753 87.3996 15.626V14.548C87.3996 14.3133 87.5243 14.196 87.7736 14.196H91.4696C92.423 14.196 92.8996 13.866 92.8996 13.206V12.942C92.8996 12.3553 92.555 11.908 91.8656 11.6L89.4676 10.456C88.7196 10.104 88.177 9.71533 87.8396 9.29C87.5023 8.86467 87.3336 8.30733 87.3336 7.618C87.3336 5.726 88.3823 4.78 90.4796 4.78H94.1316C94.3663 4.78 94.4836 4.90467 94.4836 5.154V6.232C94.4836 6.48133 94.3663 6.606 94.1316 6.606H90.9196C90.4796 6.606 90.1423 6.68667 89.9076 6.848C89.673 6.99467 89.5556 7.19267 89.5556 7.442V7.684C89.5556 8.15333 89.9296 8.564 90.6776 8.916L93.0976 10.148C93.8603 10.4853 94.381 10.8887 94.6596 11.358C94.953 11.8127 95.0996 12.4067 95.0996 13.14C95.0996 15.0467 94.007 16 91.8216 16ZM103.758 4.78H105.342C105.474 4.78 105.562 4.824 105.606 4.912C105.665 4.98533 105.65 5.088 105.562 5.22L102.46 10.148V10.236L105.804 15.56C105.878 15.6773 105.885 15.78 105.826 15.868C105.782 15.956 105.68 16 105.518 16H104.088C103.751 16 103.502 15.8753 103.34 15.626L100.238 10.544C100.136 10.3533 100.136 10.1553 100.238 9.95L103.12 5.132C103.252 4.89733 103.465 4.78 103.758 4.78ZM99.1382 16H97.7522C97.5029 16 97.3782 15.8753 97.3782 15.626V0.907999C97.3782 0.658666 97.5029 0.534 97.7522 0.534H99.1382C99.3875 0.534 99.5122 0.658666 99.5122 0.907999V15.626C99.5122 15.8753 99.3875 16 99.1382 16ZM115.353 16H110.601C109.516 16 108.673 15.6993 108.071 15.098C107.485 14.4967 107.191 13.6607 107.191 12.59V8.19C107.191 7.10467 107.485 6.26867 108.071 5.682C108.673 5.08067 109.516 4.78 110.601 4.78H112.405C113.491 4.78 114.334 5.08067 114.935 5.682C115.537 6.26867 115.837 7.10467 115.837 8.19V10.984C115.837 11.248 115.705 11.38 115.441 11.38H109.545C109.384 11.38 109.303 11.4533 109.303 11.6V12.546C109.303 13.6167 109.839 14.152 110.909 14.152H115.353C115.617 14.152 115.749 14.284 115.749 14.548V15.648C115.749 15.8827 115.617 16 115.353 16ZM109.545 9.884H113.483C113.63 9.884 113.703 9.81067 113.703 9.664V8.256C113.703 7.69867 113.579 7.29533 113.329 7.046C113.08 6.782 112.677 6.65 112.119 6.65H110.909C110.352 6.65 109.949 6.782 109.699 7.046C109.45 7.29533 109.325 7.69867 109.325 8.256V9.664C109.325 9.81067 109.399 9.884 109.545 9.884ZM120.021 16H118.635C118.386 16 118.261 15.8753 118.261 15.626V5.154C118.261 4.90467 118.386 4.78 118.635 4.78H120.021C120.27 4.78 120.395 4.90467 120.395 5.154V5.99H120.483C120.63 5.62333 120.908 5.33 121.319 5.11C121.744 4.89 122.214 4.78 122.727 4.78H123.541C123.79 4.78 123.915 4.90467 123.915 5.154V6.298C123.915 6.57667 123.79 6.694 123.541 6.65H122.221C121.004 6.65 120.395 7.31733 120.395 8.652V15.626C120.395 15.8753 120.27 16 120.021 16Z" fill="#CE2727"/>
</svg>
